<svg width="200" height="200" viewBox="0 0 200 200" fill="none" xmlns="http://www.w3.org/2000/svg">
<circle cx="100" cy="100" r="100" fill="#EAEAEA"/>
<path d="M78.4553 83.3612H90.8188V93.9911C90.8137 96.4861 92.4459 98.7157 94.8986 99.5641C97.3512 100.412 100.097 99.6971 101.761 97.776L110.291 83.9525C111.685 82.3607 112.451 80.3517 112.455 78.2753V36.0511H78.4553C73.3341 36.0511 69.1826 40.0226 69.1826 44.9217V74.4905C69.1826 79.3896 73.3341 83.3612 78.4553 83.3612Z" stroke="#494949" stroke-width="6"/>
<path d="M131 74.4904V39.0078C131 37.3747 129.616 36.0509 127.909 36.0509H112.631V77.4473H127.909C129.616 77.4473 131 76.1234 131 74.4904Z" stroke="#494949" stroke-width="6"/>
<path d="M71.8591 155.022H90.2191V121.566H95.9311V130.542H100.113V136.05H95.9311V160.173H66.1471V146.658H71.8591V155.022ZM64.4131 143.241V121.77H70.0741V127.89H78.0811V121.77H83.6911V143.241H64.4131ZM78.0811 137.682V133.296H70.0741V137.682H78.0811Z" fill="#494949"/>
<path d="M123.042 121.566H128.601V135.132H131.814V121.566H137.424V160.173H131.814V140.538H128.601V160.173H123.042V121.566ZM103.764 121.77H119.727V127.278H109.833V154.563H120.441V159.969H103.764V121.77Z" fill="#494949"/>
</svg>
