<svg width="200" height="200" viewBox="0 0 200 200" fill="none" xmlns="http://www.w3.org/2000/svg">
<circle cx="100" cy="100" r="100" fill="#ED3F27"/>
<path d="M121.727 50.6066H109.364V39.9766C109.369 37.4817 107.737 35.252 105.284 34.4037C102.831 33.5553 100.086 34.2707 98.422 36.1918L89.8912 50.0152C88.4976 51.6071 87.732 53.6161 87.7275 55.6924V97.9167H121.727C126.849 97.9167 131 93.9452 131 89.0461V59.4773C131 54.5781 126.849 50.6066 121.727 50.6066Z" stroke="white" stroke-width="6"/>
<path d="M69.1826 59.4774V94.96C69.1826 96.593 70.5665 97.9169 72.2735 97.9169H87.5516V56.5205H72.2735C70.5665 56.5205 69.1826 57.8443 69.1826 59.4774Z" stroke="white" stroke-width="6"/>
<path d="M84.1506 128.094H65.5866V123.402H77.7756V120.189H84.0996V123.402H96.0846V127.89L85.9356 132.786L96.4416 137.07V142.833L79.9176 135.642L65.5866 142.578V136.815L84.1506 128.094ZM98.4816 145.026V150.126H83.7426V160.173H78.1326V150.126H63.3936V145.026H98.4816Z" fill="white"/>
<path d="M111.006 155.073H130.437V135.03H126V129.522H130.437V121.566H136.2V160.173H105.294V147.372H111.006V155.073ZM117.228 123.504H124.419V128.553L118.452 132.99L124.623 137.682V144.006L114.015 136.254L103.56 144.006V137.682L115.749 128.553H103.56V123.504H111.006V120.189H117.228V123.504Z" fill="white"/>
</svg>
