<svg width="250" height="291" viewBox="0 0 250 291" fill="none" xmlns="http://www.w3.org/2000/svg">
<path d="M155.28 84.637H138.117V69.8803C138.124 66.4168 135.858 63.3216 132.453 62.1439C129.048 60.9662 125.237 61.9593 122.927 64.6262L111.085 83.816C109.15 86.0259 108.087 88.8148 108.081 91.6972V150.313H155.28C162.389 150.313 168.152 144.8 168.152 137.999V96.9513C168.152 90.1503 162.389 84.637 155.28 84.637Z" fill="#ED3F27"/>
<path d="M82.3359 96.9513V146.209C82.3359 148.476 84.257 150.313 86.6268 150.313H99.4992V92.8466H86.6268C84.257 92.8466 82.3359 94.6843 82.3359 96.9513Z" fill="#ED3F27"/>
<path d="M57.9356 54.4347C52.0226 63.1671 41.7848 66.0017 41.7848 66.0017C41.7848 66.0017 41.1337 54.6785 47.0466 45.9462C52.9596 37.2138 63.1974 34.3792 63.1974 34.3792C63.1974 34.3792 63.8485 45.7024 57.9356 54.4347Z" fill="#B6C4D1"/>
<path d="M51.7741 83.2151C44.2876 90.4328 33.712 90.9247 33.712 90.9247C33.712 90.9247 35.2744 79.7145 42.7609 72.4968C50.2474 65.2791 60.823 64.7871 60.823 64.7871C60.823 64.7871 59.2606 75.9974 51.7741 83.2151Z" fill="#B6C4D1"/>
<path d="M43.6354 109.38C37.4332 117.88 27.098 120.331 27.098 120.331C27.098 120.331 26.8186 109.001 33.0208 100.501C39.2231 92.0005 49.5583 89.5497 49.5583 89.5497C49.5583 89.5497 49.8377 100.88 43.6354 109.38Z" fill="#B6C4D1"/>
<path d="M46.2044 135.155C43.0913 145.414 34.1623 151.502 34.1623 151.502C34.1623 151.502 30.2805 140.957 33.3936 130.699C36.5066 120.44 45.4357 114.352 45.4357 114.352C45.4357 114.352 49.3175 124.897 46.2044 135.155Z" fill="#B6C4D1"/>
<path d="M53.318 158.738C51.9159 169.419 44.1098 177.075 44.1098 177.075C44.1098 177.075 38.5769 167.412 39.979 156.73C41.381 146.049 49.1871 138.393 49.1871 138.393C49.1871 138.393 54.72 148.056 53.318 158.738Z" fill="#B6C4D1"/>
<path d="M66.5975 173.066C66.9491 183.846 60.5032 192.837 60.5032 192.837C60.5032 192.837 53.4872 184.349 53.1356 173.569C52.784 162.789 59.23 153.798 59.23 153.798C59.23 153.798 66.2459 162.286 66.5975 173.066Z" fill="#B6C4D1"/>
<path d="M82.8382 184.265C85.9512 194.524 82.0694 205.069 82.0694 205.069C82.0694 205.069 73.1404 198.981 70.0273 188.722C66.9143 178.464 70.796 167.919 70.796 167.919C70.796 167.919 79.7251 174.007 82.8382 184.265Z" fill="#B6C4D1"/>
<path d="M105.882 194.713C112.491 202.853 112.766 214.184 112.766 214.184C112.766 214.184 102.325 212.316 95.716 204.175C89.1068 196.034 88.832 184.704 88.832 184.704C88.832 184.704 99.2729 186.572 105.882 194.713Z" fill="#B6C4D1"/>
<path d="M25.8125 62.411C25.2852 73.1829 31.5836 82.2927 31.5836 82.2927C31.5836 82.2927 38.7369 73.9378 39.2641 63.1659C39.7913 52.394 33.4929 43.2842 33.4929 43.2842C33.4929 43.2842 26.3397 51.6391 25.8125 62.411Z" fill="#B6C4D1"/>
<path d="M14.937 91.393C17.0316 101.944 25.3174 108.998 25.3174 108.998C25.3174 108.998 30.2073 98.9452 28.1128 88.3943C26.0183 77.8433 17.7324 70.7894 17.7324 70.7894C17.7324 70.7894 12.8425 80.842 14.937 91.393Z" fill="#B6C4D1"/>
<path d="M9.95182 120.563C15.2903 129.71 25.3296 133.305 25.3296 133.305C25.3296 133.305 26.7136 122.067 21.3751 112.92C16.0367 103.772 5.99734 100.178 5.99734 100.178C5.99734 100.178 4.61337 111.415 9.95182 120.563Z" fill="#B6C4D1"/>
<path d="M14.3739 149.706C22.3124 156.347 32.8943 156.048 32.8943 156.048C32.8943 156.048 30.6054 144.982 22.6669 138.341C14.7284 131.7 4.14646 131.999 4.14646 131.999C4.14646 131.999 6.43537 143.065 14.3739 149.706Z" fill="#B6C4D1"/>
<path d="M20.4957 170.172C29.3906 175.236 39.7632 172.974 39.7632 172.974C39.7632 172.974 35.7144 162.501 26.8195 157.437C17.9246 152.373 7.55195 154.636 7.55195 154.636C7.55195 154.636 11.6008 165.108 20.4957 170.172Z" fill="#B6C4D1"/>
<path d="M35.2744 191.868C44.8554 195.202 54.7036 191.045 54.7036 191.045C54.7036 191.045 49.0179 181.485 39.4369 178.151C29.8558 174.818 20.0076 178.974 20.0076 178.974C20.0076 178.974 25.6933 188.535 35.2744 191.868Z" fill="#B6C4D1"/>
<path d="M55.4911 209.728C65.5406 210.481 74.1572 203.897 74.1572 203.897C74.1572 203.897 66.4803 196.093 56.4307 195.341C46.3811 194.588 37.7646 201.172 37.7646 201.172C37.7646 201.172 45.4415 208.976 55.4911 209.728Z" fill="#B6C4D1"/>
<path d="M78.3949 221.839C88.371 220.338 95.5208 211.979 95.5208 211.979C95.5208 211.979 86.4963 206.055 76.5203 207.556C66.5442 209.057 59.3944 217.416 59.3944 217.416C59.3944 217.416 68.4189 223.34 78.3949 221.839Z" fill="#B6C4D1"/>
<path d="M103.592 230.388C113.446 228.145 120.034 219.273 120.034 219.273C120.034 219.273 110.645 214.038 100.791 216.28C90.9374 218.523 84.3495 227.395 84.3495 227.395C84.3495 227.395 93.738 232.631 103.592 230.388Z" fill="#B6C4D1"/>
<path d="M192.063 54.4347C197.976 63.1671 208.214 66.0017 208.214 66.0017C208.214 66.0017 208.865 54.6785 202.952 45.9462C197.039 37.2138 186.802 34.3792 186.802 34.3792C186.802 34.3792 186.151 45.7024 192.063 54.4347Z" fill="#B6C4D1"/>
<path d="M198.225 83.2151C205.711 90.4328 216.287 90.9247 216.287 90.9247C216.287 90.9247 214.725 79.7145 207.238 72.4968C199.752 65.2791 189.176 64.7871 189.176 64.7871C189.176 64.7871 190.738 75.9974 198.225 83.2151Z" fill="#B6C4D1"/>
<path d="M206.364 109.38C212.566 117.88 222.901 120.331 222.901 120.331C222.901 120.331 223.18 109.001 216.978 100.501C210.776 92.0005 200.441 89.5497 200.441 89.5497C200.441 89.5497 200.161 100.88 206.364 109.38Z" fill="#B6C4D1"/>
<path d="M203.795 135.155C206.908 145.414 215.837 151.502 215.837 151.502C215.837 151.502 219.719 140.957 216.605 130.699C213.492 120.44 204.563 114.352 204.563 114.352C204.563 114.352 200.682 124.897 203.795 135.155Z" fill="#B6C4D1"/>
<path d="M196.681 158.738C198.083 169.419 205.889 177.075 205.889 177.075C205.889 177.075 211.422 167.412 210.02 156.73C208.618 146.049 200.812 138.393 200.812 138.393C200.812 138.393 195.279 148.056 196.681 158.738Z" fill="#B6C4D1"/>
<path d="M183.402 173.066C183.05 183.846 189.496 192.837 189.496 192.837C189.496 192.837 196.512 184.349 196.863 173.569C197.215 162.789 190.769 153.798 190.769 153.798C190.769 153.798 183.753 162.286 183.402 173.066Z" fill="#B6C4D1"/>
<path d="M167.161 184.265C164.048 194.524 167.93 205.069 167.93 205.069C167.93 205.069 176.859 198.981 179.972 188.722C183.085 178.464 179.203 167.919 179.203 167.919C179.203 167.919 170.274 174.007 167.161 184.265Z" fill="#B6C4D1"/>
<path d="M144.118 194.713C137.509 202.853 137.234 214.184 137.234 214.184C137.234 214.184 147.675 212.316 154.284 204.175C160.893 196.034 161.168 184.704 161.168 184.704C161.168 184.704 150.727 186.572 144.118 194.713Z" fill="#B6C4D1"/>
<path d="M224.187 62.411C224.714 73.1829 218.415 82.2927 218.415 82.2927C218.415 82.2927 211.262 73.9378 210.735 63.1659C210.208 52.394 216.506 43.2842 216.506 43.2842C216.506 43.2842 223.659 51.6391 224.187 62.411Z" fill="#B6C4D1"/>
<path d="M235.062 91.393C232.967 101.944 224.682 108.998 224.682 108.998C224.682 108.998 219.792 98.9452 221.886 88.3943C223.981 77.8433 232.267 70.7894 232.267 70.7894C232.267 70.7894 237.157 80.842 235.062 91.393Z" fill="#B6C4D1"/>
<path d="M240.047 120.563C234.709 129.71 224.669 133.305 224.669 133.305C224.669 133.305 223.285 122.067 228.624 112.92C233.962 103.772 244.002 100.178 244.002 100.178C244.002 100.178 245.386 111.415 240.047 120.563Z" fill="#B6C4D1"/>
<path d="M235.625 149.706C227.687 156.347 217.105 156.048 217.105 156.048C217.105 156.048 219.394 144.982 227.332 138.341C235.271 131.7 245.853 131.999 245.853 131.999C245.853 131.999 243.564 143.065 235.625 149.706Z" fill="#B6C4D1"/>
<path d="M229.503 170.172C220.608 175.236 210.236 172.974 210.236 172.974C210.236 172.974 214.285 162.501 223.18 157.437C232.074 152.373 242.447 154.636 242.447 154.636C242.447 154.636 238.398 165.108 229.503 170.172Z" fill="#B6C4D1"/>
<path d="M214.725 191.868C205.144 195.202 195.295 191.045 195.295 191.045C195.295 191.045 200.981 181.485 210.562 178.151C220.143 174.818 229.991 178.974 229.991 178.974C229.991 178.974 224.306 188.535 214.725 191.868Z" fill="#B6C4D1"/>
<path d="M194.508 209.728C184.458 210.481 175.842 203.897 175.842 203.897C175.842 203.897 183.519 196.093 193.568 195.341C203.618 194.588 212.234 201.172 212.234 201.172C212.234 201.172 204.558 208.976 194.508 209.728Z" fill="#B6C4D1"/>
<path d="M171.604 221.839C161.628 220.338 154.478 211.979 154.478 211.979C154.478 211.979 163.503 206.055 173.479 207.556C183.455 209.057 190.605 217.416 190.605 217.416C190.605 217.416 181.58 223.34 171.604 221.839Z" fill="#B6C4D1"/>
<path d="M146.407 230.388C136.553 228.145 129.965 219.273 129.965 219.273C129.965 219.273 139.354 214.038 149.208 216.28C159.062 218.523 165.65 227.395 165.65 227.395C165.65 227.395 156.261 232.631 146.407 230.388Z" fill="#B6C4D1"/>
<path d="M123.33 1.08985C123.793 -0.363284 125.827 -0.363283 126.29 1.08985L130.251 13.5083C130.459 14.1591 131.059 14.5996 131.735 14.5981L144.64 14.5696C146.151 14.5663 146.779 16.5216 145.555 17.4163L135.098 25.0628C134.55 25.4636 134.321 26.1764 134.531 26.8263L138.546 39.2271C139.016 40.6782 137.371 41.8866 136.151 40.9864L125.727 33.2938C125.181 32.8907 124.439 32.8907 123.893 33.2938L113.469 40.9864C112.249 41.8866 110.604 40.6782 111.074 39.2271L115.089 26.8263C115.299 26.1764 115.07 25.4636 114.522 25.0628L104.065 17.4163C102.841 16.5216 103.47 14.5663 104.98 14.5696L117.885 14.5981C118.561 14.5996 119.161 14.1591 119.369 13.5083L123.33 1.08985Z" fill="#ED3F27"/>
<rect x="32" y="176.345" width="180.81" height="114.215" rx="26.0425" fill="#ED3F27"/>
<path d="M56.5409 199.737C56.5409 198.706 56.7335 197.739 57.1188 196.836C57.5361 195.933 58.0819 195.143 58.756 194.466C59.4623 193.757 60.2809 193.209 61.2119 192.822C62.1429 192.403 63.138 192.193 64.1974 192.193H78.9326C79.992 192.193 80.9871 192.403 81.9181 192.822C82.8491 193.209 83.6517 193.757 84.3258 194.466C85.0321 195.143 85.5778 195.933 85.9631 196.836C86.3804 197.739 86.5891 198.706 86.5891 199.737V202.155C86.5891 203.187 86.3804 204.17 85.9631 205.105C85.5778 206.008 85.0321 206.798 84.3258 207.475C83.6517 208.152 82.8491 208.7 81.9181 209.119C80.9871 209.506 79.992 209.699 78.9326 209.699H64.1974C63.138 209.699 62.1429 209.506 61.2119 209.119C60.2809 208.7 59.4623 208.152 58.756 207.475C58.0819 206.798 57.5361 206.008 57.1188 205.105C56.7335 204.17 56.5409 203.187 56.5409 202.155V199.737ZM88.13 214.729V219.565H80.8106V228.608H75.4173V219.565H67.7127V228.608H62.3194V219.565H55V214.729H88.13ZM61.9823 200.946C61.9823 201.914 62.2552 202.752 62.801 203.461C63.3788 204.17 64.2135 204.525 65.305 204.525H77.825C78.9165 204.525 79.7351 204.17 80.2809 203.461C80.8587 202.752 81.1477 201.914 81.1477 200.946C81.1477 200.012 80.8587 199.189 80.2809 198.48C79.7351 197.771 78.9165 197.416 77.825 197.416H65.305C64.2135 197.416 63.3788 197.771 62.801 198.48C62.2552 199.189 61.9823 200.012 61.9823 200.946Z" fill="white"/>
<path d="M102.941 209.022L109.346 228.511H103.375L99.9074 217.437L95.9107 228.511H89.7469L100.822 197.561H90.0359V192.193H107.082V197.561L102.941 209.022ZM115.413 228.608V210.377H107.468V204.912H115.413V192H120.854V228.608H115.413Z" fill="white"/>
<path d="M156.276 205.879V209.941H123.146V205.879H156.276ZM154.06 222.418H130.369V224.352H154.06V228.608H125.361V218.307H149.052V216.47H125.361V212.311H154.06V222.418ZM153.675 192.193V196.497H131.621V199.206H153.675V203.606H125.746V192.193H153.675Z" fill="white"/>
<path d="M169.161 192.193C170.316 192.193 171.408 192.419 172.435 192.87C173.462 193.322 174.361 193.934 175.132 194.708C175.902 195.45 176.496 196.336 176.913 197.368C177.363 198.4 177.587 199.496 177.587 200.656V205.976C177.587 207.136 177.363 208.233 176.913 209.264C176.496 210.296 175.902 211.199 175.132 211.972C174.361 212.746 173.462 213.359 172.435 213.81C171.408 214.229 170.316 214.439 169.161 214.439H166.416C165.26 214.439 164.169 214.229 163.141 213.81C162.114 213.359 161.215 212.746 160.445 211.972C159.674 211.199 159.064 210.296 158.615 209.264C158.197 208.233 157.989 207.136 157.989 205.976V200.656C157.989 199.496 158.197 198.4 158.615 197.368C159.064 196.336 159.674 195.45 160.445 194.708C161.215 193.934 162.114 193.322 163.141 192.87C164.169 192.419 165.26 192.193 166.416 192.193H169.161ZM183.559 223.385V192H189V228.608H157.218V223.385H183.559ZM166.416 197.561C165.581 197.561 164.859 197.868 164.249 198.48C163.639 199.06 163.334 199.786 163.334 200.656V205.976C163.334 206.846 163.639 207.588 164.249 208.2C164.859 208.781 165.581 209.071 166.416 209.071H169.161C169.995 209.071 170.718 208.781 171.327 208.2C171.937 207.588 172.242 206.846 172.242 205.976V200.656C172.242 199.786 171.937 199.06 171.327 198.48C170.718 197.868 169.995 197.561 169.161 197.561H166.416Z" fill="white"/>
<path d="M91.343 270.777H109.497V251.675H103.526V246.404H109.497V239.392H114.987V276H85.8053V264.152H91.343V270.777ZM96.7844 239.585L104.489 259.268H98.3735L93.7025 247.033L88.9834 259.268H82.916L90.5725 239.585H96.7844Z" fill="white"/>
<path d="M135.384 239.392H140.632V246.549H143.811V239.392H149.059V267.15L147.615 276H141.836L143.377 267.15H119.878V262.363H143.811V251.675H140.632V260.428H135.384V239.392ZM118.048 239.585H132.543V244.421H123.634V247.71H131.868V252.159H123.634V255.254H133.169V260.041H118.048V239.585Z" fill="white"/>
<path d="M159.537 266.57H153.903V239.827H159.537V266.57ZM159.537 274.888H153.903V269.23H159.537V274.888Z" fill="white"/>
</svg>
