<svg width="250" height="291" viewBox="0 0 250 291" fill="none" xmlns="http://www.w3.org/2000/svg">
<path d="M155.28 84.637H138.117V69.8803C138.124 66.4168 135.858 63.3216 132.453 62.1439C129.048 60.9662 125.237 61.9593 122.927 64.6262L111.085 83.816C109.15 86.0259 108.087 88.8148 108.081 91.6972V150.313H155.28C162.389 150.313 168.152 144.8 168.152 137.999V96.9513C168.152 90.1503 162.389 84.637 155.28 84.637Z" fill="#ED3F27"/>
<path d="M82.3359 96.9513V146.209C82.3359 148.476 84.257 150.313 86.6268 150.313H99.4992V92.8466H86.6268C84.257 92.8466 82.3359 94.6843 82.3359 96.9513Z" fill="#ED3F27"/>
<path d="M57.9356 54.4347C52.0226 63.1671 41.7848 66.0017 41.7848 66.0017C41.7848 66.0017 41.1337 54.6785 47.0466 45.9462C52.9596 37.2138 63.1974 34.3792 63.1974 34.3792C63.1974 34.3792 63.8485 45.7024 57.9356 54.4347Z" fill="#B6C4D1"/>
<path d="M51.7741 83.2151C44.2876 90.4328 33.712 90.9247 33.712 90.9247C33.712 90.9247 35.2744 79.7145 42.7609 72.4968C50.2474 65.2791 60.823 64.7871 60.823 64.7871C60.823 64.7871 59.2606 75.9974 51.7741 83.2151Z" fill="#B6C4D1"/>
<path d="M43.6354 109.38C37.4332 117.88 27.098 120.331 27.098 120.331C27.098 120.331 26.8186 109.001 33.0208 100.501C39.2231 92.0005 49.5583 89.5497 49.5583 89.5497C49.5583 89.5497 49.8377 100.88 43.6354 109.38Z" fill="#B6C4D1"/>
<path d="M46.2044 135.155C43.0913 145.414 34.1623 151.502 34.1623 151.502C34.1623 151.502 30.2805 140.957 33.3936 130.699C36.5066 120.44 45.4357 114.352 45.4357 114.352C45.4357 114.352 49.3175 124.897 46.2044 135.155Z" fill="#B6C4D1"/>
<path d="M53.318 158.738C51.9159 169.419 44.1098 177.075 44.1098 177.075C44.1098 177.075 38.5769 167.412 39.979 156.73C41.381 146.049 49.1871 138.393 49.1871 138.393C49.1871 138.393 54.72 148.056 53.318 158.738Z" fill="#B6C4D1"/>
<path d="M66.5975 173.066C66.9491 183.846 60.5032 192.837 60.5032 192.837C60.5032 192.837 53.4872 184.349 53.1356 173.569C52.784 162.789 59.23 153.798 59.23 153.798C59.23 153.798 66.2459 162.286 66.5975 173.066Z" fill="#B6C4D1"/>
<path d="M82.8382 184.265C85.9512 194.524 82.0694 205.069 82.0694 205.069C82.0694 205.069 73.1404 198.981 70.0273 188.722C66.9143 178.464 70.796 167.919 70.796 167.919C70.796 167.919 79.7251 174.007 82.8382 184.265Z" fill="#B6C4D1"/>
<path d="M105.882 194.713C112.491 202.853 112.766 214.184 112.766 214.184C112.766 214.184 102.325 212.316 95.716 204.175C89.1068 196.034 88.832 184.704 88.832 184.704C88.832 184.704 99.2729 186.572 105.882 194.713Z" fill="#B6C4D1"/>
<path d="M25.8125 62.411C25.2852 73.1829 31.5836 82.2927 31.5836 82.2927C31.5836 82.2927 38.7369 73.9378 39.2641 63.1659C39.7913 52.394 33.4929 43.2842 33.4929 43.2842C33.4929 43.2842 26.3397 51.6391 25.8125 62.411Z" fill="#B6C4D1"/>
<path d="M14.937 91.393C17.0316 101.944 25.3174 108.998 25.3174 108.998C25.3174 108.998 30.2073 98.9452 28.1128 88.3943C26.0183 77.8433 17.7324 70.7894 17.7324 70.7894C17.7324 70.7894 12.8425 80.842 14.937 91.393Z" fill="#B6C4D1"/>
<path d="M9.95182 120.563C15.2903 129.71 25.3296 133.305 25.3296 133.305C25.3296 133.305 26.7136 122.067 21.3751 112.92C16.0367 103.772 5.99734 100.178 5.99734 100.178C5.99734 100.178 4.61337 111.415 9.95182 120.563Z" fill="#B6C4D1"/>
<path d="M14.3739 149.706C22.3124 156.347 32.8943 156.048 32.8943 156.048C32.8943 156.048 30.6054 144.982 22.6669 138.341C14.7284 131.7 4.14646 131.999 4.14646 131.999C4.14646 131.999 6.43537 143.065 14.3739 149.706Z" fill="#B6C4D1"/>
<path d="M20.4957 170.172C29.3906 175.236 39.7632 172.974 39.7632 172.974C39.7632 172.974 35.7144 162.501 26.8195 157.437C17.9246 152.373 7.55195 154.636 7.55195 154.636C7.55195 154.636 11.6008 165.108 20.4957 170.172Z" fill="#B6C4D1"/>
<path d="M35.2744 191.868C44.8554 195.202 54.7036 191.045 54.7036 191.045C54.7036 191.045 49.0179 181.485 39.4369 178.151C29.8558 174.818 20.0076 178.974 20.0076 178.974C20.0076 178.974 25.6933 188.535 35.2744 191.868Z" fill="#B6C4D1"/>
<path d="M55.4911 209.728C65.5406 210.481 74.1572 203.897 74.1572 203.897C74.1572 203.897 66.4803 196.093 56.4307 195.341C46.3811 194.588 37.7646 201.172 37.7646 201.172C37.7646 201.172 45.4415 208.976 55.4911 209.728Z" fill="#B6C4D1"/>
<path d="M78.3949 221.839C88.371 220.338 95.5208 211.979 95.5208 211.979C95.5208 211.979 86.4963 206.055 76.5203 207.556C66.5442 209.057 59.3944 217.416 59.3944 217.416C59.3944 217.416 68.4189 223.34 78.3949 221.839Z" fill="#B6C4D1"/>
<path d="M103.592 230.388C113.446 228.145 120.034 219.273 120.034 219.273C120.034 219.273 110.645 214.038 100.791 216.28C90.9374 218.523 84.3495 227.395 84.3495 227.395C84.3495 227.395 93.738 232.631 103.592 230.388Z" fill="#B6C4D1"/>
<path d="M192.063 54.4347C197.976 63.1671 208.214 66.0017 208.214 66.0017C208.214 66.0017 208.865 54.6785 202.952 45.9462C197.039 37.2138 186.802 34.3792 186.802 34.3792C186.802 34.3792 186.151 45.7024 192.063 54.4347Z" fill="#B6C4D1"/>
<path d="M198.225 83.2151C205.711 90.4328 216.287 90.9247 216.287 90.9247C216.287 90.9247 214.725 79.7145 207.238 72.4968C199.752 65.2791 189.176 64.7871 189.176 64.7871C189.176 64.7871 190.738 75.9974 198.225 83.2151Z" fill="#B6C4D1"/>
<path d="M206.364 109.38C212.566 117.88 222.901 120.331 222.901 120.331C222.901 120.331 223.18 109.001 216.978 100.501C210.776 92.0005 200.441 89.5497 200.441 89.5497C200.441 89.5497 200.161 100.88 206.364 109.38Z" fill="#B6C4D1"/>
<path d="M203.795 135.155C206.908 145.414 215.837 151.502 215.837 151.502C215.837 151.502 219.719 140.957 216.605 130.699C213.492 120.44 204.563 114.352 204.563 114.352C204.563 114.352 200.682 124.897 203.795 135.155Z" fill="#B6C4D1"/>
<path d="M196.681 158.738C198.083 169.419 205.889 177.075 205.889 177.075C205.889 177.075 211.422 167.412 210.02 156.73C208.618 146.049 200.812 138.393 200.812 138.393C200.812 138.393 195.279 148.056 196.681 158.738Z" fill="#B6C4D1"/>
<path d="M183.402 173.066C183.05 183.846 189.496 192.837 189.496 192.837C189.496 192.837 196.512 184.349 196.863 173.569C197.215 162.789 190.769 153.798 190.769 153.798C190.769 153.798 183.753 162.286 183.402 173.066Z" fill="#B6C4D1"/>
<path d="M167.161 184.265C164.048 194.524 167.93 205.069 167.93 205.069C167.93 205.069 176.859 198.981 179.972 188.722C183.085 178.464 179.203 167.919 179.203 167.919C179.203 167.919 170.274 174.007 167.161 184.265Z" fill="#B6C4D1"/>
<path d="M144.118 194.713C137.509 202.853 137.234 214.184 137.234 214.184C137.234 214.184 147.675 212.316 154.284 204.175C160.893 196.034 161.168 184.704 161.168 184.704C161.168 184.704 150.727 186.572 144.118 194.713Z" fill="#B6C4D1"/>
<path d="M224.187 62.411C224.714 73.1829 218.415 82.2927 218.415 82.2927C218.415 82.2927 211.262 73.9378 210.735 63.1659C210.208 52.394 216.506 43.2842 216.506 43.2842C216.506 43.2842 223.659 51.6391 224.187 62.411Z" fill="#B6C4D1"/>
<path d="M235.062 91.393C232.967 101.944 224.682 108.998 224.682 108.998C224.682 108.998 219.792 98.9452 221.886 88.3943C223.981 77.8433 232.267 70.7894 232.267 70.7894C232.267 70.7894 237.157 80.842 235.062 91.393Z" fill="#B6C4D1"/>
<path d="M240.047 120.563C234.709 129.71 224.669 133.305 224.669 133.305C224.669 133.305 223.285 122.067 228.624 112.92C233.962 103.772 244.002 100.178 244.002 100.178C244.002 100.178 245.386 111.415 240.047 120.563Z" fill="#B6C4D1"/>
<path d="M235.625 149.706C227.687 156.347 217.105 156.048 217.105 156.048C217.105 156.048 219.394 144.982 227.332 138.341C235.271 131.7 245.853 131.999 245.853 131.999C245.853 131.999 243.564 143.065 235.625 149.706Z" fill="#B6C4D1"/>
<path d="M229.503 170.172C220.608 175.236 210.236 172.974 210.236 172.974C210.236 172.974 214.285 162.501 223.18 157.437C232.074 152.373 242.447 154.636 242.447 154.636C242.447 154.636 238.398 165.108 229.503 170.172Z" fill="#B6C4D1"/>
<path d="M214.725 191.868C205.144 195.202 195.295 191.045 195.295 191.045C195.295 191.045 200.981 181.485 210.562 178.151C220.143 174.818 229.991 178.974 229.991 178.974C229.991 178.974 224.306 188.535 214.725 191.868Z" fill="#B6C4D1"/>
<path d="M194.508 209.728C184.458 210.481 175.842 203.897 175.842 203.897C175.842 203.897 183.519 196.093 193.568 195.341C203.618 194.588 212.234 201.172 212.234 201.172C212.234 201.172 204.558 208.976 194.508 209.728Z" fill="#B6C4D1"/>
<path d="M171.604 221.839C161.628 220.338 154.478 211.979 154.478 211.979C154.478 211.979 163.503 206.055 173.479 207.556C183.455 209.057 190.605 217.416 190.605 217.416C190.605 217.416 181.58 223.34 171.604 221.839Z" fill="#B6C4D1"/>
<path d="M146.407 230.388C136.553 228.145 129.965 219.273 129.965 219.273C129.965 219.273 139.354 214.038 149.208 216.28C159.062 218.523 165.65 227.395 165.65 227.395C165.65 227.395 156.261 232.631 146.407 230.388Z" fill="#B6C4D1"/>
<path d="M123.33 1.08985C123.793 -0.363284 125.827 -0.363283 126.29 1.08985L130.251 13.5083C130.459 14.1591 131.059 14.5996 131.735 14.5981L144.64 14.5696C146.151 14.5663 146.779 16.5216 145.555 17.4163L135.098 25.0628C134.55 25.4636 134.321 26.1764 134.531 26.8263L138.546 39.2271C139.016 40.6782 137.371 41.8866 136.151 40.9864L125.727 33.2938C125.181 32.8907 124.439 32.8907 123.893 33.2938L113.469 40.9864C112.249 41.8866 110.604 40.6782 111.074 39.2271L115.089 26.8263C115.299 26.1764 115.07 25.4636 114.522 25.0628L104.065 17.4163C102.841 16.5216 103.47 14.5663 104.98 14.5696L117.885 14.5981C118.561 14.5996 119.161 14.1591 119.369 13.5083L123.33 1.08985Z" fill="#ED3F27"/>
<rect x="32.3594" y="176.345" width="180.81" height="114.215" rx="26.0425" fill="#ED3F27"/>
<path d="M72.7642 208.084V210.294H86.8093V214.763H53.0225V210.294H67.0676V208.084H55.6743V191.093H84.1574V195.512H61.1745V197.378H84.1574V201.7H61.1745V203.664H84.1574V208.084H72.7642ZM84.6976 221.196L83.1752 228.071H77.3313L78.8537 221.196H55.1341V216.826H84.6976V221.196Z" fill="white"/>
<path d="M97.5925 210.54H88.4583V205.236H98.3782L99.606 196.396H88.2618V191.093H105.794V196.396L101.276 227.826H95.2353L97.5925 210.54ZM115.124 228.071V210.736H107.414V205.187H115.124V190.896H120.674V228.071H115.124Z" fill="white"/>
<path d="M157.288 204.99V209.115H123.501V204.99H157.288ZM155.029 221.786H130.868V223.75H155.029V228.071H125.76V217.611H149.922V215.745H125.76V211.522H155.029V221.786ZM154.636 191.093V195.463H132.144V198.213H154.636V202.682H126.153V191.093H154.636Z" fill="white"/>
<path d="M170.92 191.093C172.098 191.093 173.211 191.322 174.259 191.78C175.307 192.238 176.223 192.86 177.009 193.646C177.795 194.399 178.4 195.3 178.826 196.347C179.284 197.395 179.514 198.508 179.514 199.687V205.089C179.514 206.267 179.284 207.38 178.826 208.428C178.4 209.476 177.795 210.392 177.009 211.178C176.223 211.964 175.307 212.586 174.259 213.044C173.211 213.47 172.098 213.683 170.92 213.683H168.12C166.942 213.683 165.829 213.47 164.781 213.044C163.733 212.586 162.817 211.964 162.031 211.178C161.245 210.392 160.623 209.476 160.165 208.428C159.739 207.38 159.526 206.267 159.526 205.089V199.687C159.526 198.508 159.739 197.395 160.165 196.347C160.623 195.3 161.245 194.399 162.031 193.646C162.817 192.86 163.733 192.238 164.781 191.78C165.829 191.322 166.942 191.093 168.12 191.093H170.92ZM185.603 222.768V190.896H191.152V228.071H158.741V222.768H185.603ZM168.12 196.544C167.269 196.544 166.532 196.855 165.91 197.477C165.288 198.066 164.977 198.803 164.977 199.687V205.089C164.977 205.973 165.288 206.726 165.91 207.348C166.532 207.937 167.269 208.232 168.12 208.232H170.92C171.771 208.232 172.507 207.937 173.129 207.348C173.751 206.726 174.062 205.973 174.062 205.089V199.687C174.062 198.803 173.751 198.066 173.129 197.477C172.507 196.855 171.771 196.544 170.92 196.544H168.12Z" fill="white"/>
<path d="M90.3315 271.876H108.845V252.478H102.756V247.126H108.845V240.005H114.444V277.18H84.684V265.149H90.3315V271.876ZM95.8808 240.201L103.738 260.189H97.5014L92.7378 247.764L87.9252 260.189H81.7375L89.5458 240.201H95.8808Z" fill="white"/>
<path d="M135.736 240.005H141.089V247.273H144.33V240.005H149.683V268.193L148.21 277.18H142.317L143.888 268.193H119.923V263.332H144.33V252.478H141.089V261.367H135.736V240.005ZM118.057 240.201H132.839V245.112H123.754V248.452H132.151V252.97H123.754V256.113H133.477V260.974H118.057V240.201Z" fill="white"/>
<path d="M160.859 267.604H155.114V240.447H160.859V267.604ZM160.859 276.051H155.114V270.305H160.859V276.051Z" fill="white"/>
</svg>
