<?xml version="1.0" encoding="utf-8"?>
<!-- Generator: Adobe Illustrator 25.4.1, SVG Export Plug-In . SVG Version: 6.00 Build 0)  -->
<svg version="1.1" id="Layer_1" xmlns="http://www.w3.org/2000/svg" xmlns:xlink="http://www.w3.org/1999/xlink" x="0px" y="0px"
	 viewBox="0 0 450 210" style="enable-background:new 0 0 450 210;" xml:space="preserve">
<style type="text/css">
	.st0{fill:#F0413C;}
	.st1{fill:#FFFFFF;}
</style>
<path class="st0" d="M24.7,19.4c0.1-0.7,0.2-1.5,0.2-2.3c0-0.9-0.1-1.8-0.3-2.6h4.7v4.9H24.7z M19.9,22.5c-1.9,0-3.3-2.1-3.3-5.4
	c0-3.3,1.4-5.4,3.3-5.4c1.9,0,3.3,2.1,3.3,5.4C23.2,20.4,21.8,22.5,19.9,22.5z M29.3,8.5V13h-5.2c-0.9-1.9-2.3-3-4.2-3
	c-2.9,0-5,2.7-5,7c0,4.3,2.1,7,5,7c1.9,0,3.5-1.2,4.3-3.2h5v7.8h1.8V8.5H29.3z M63.2,20.4h1.9V8.5h-1.9v4.3h-4.4v1.5h4.4V20.4z
	 M60.3,18c-2.9-1-4.9-3.5-4.9-6.4v-2h-1.8v2.1c0,3.1-2,5.8-5.1,6.9l1,1.5c2.4-0.9,4.3-2.7,5.1-5.1c0.9,2.1,2.6,3.7,4.8,4.5L60.3,18z
	 M58.4,27.2c-3,0-4.9-0.9-4.9-2.3c0-1.5,1.8-2.4,4.9-2.4c3,0,4.9,0.9,4.9,2.4C63.3,26.3,61.5,27.2,58.4,27.2z M58.4,21
	c-4.1,0-6.7,1.4-6.7,3.8c0,2.4,2.6,3.8,6.7,3.8s6.7-1.4,6.7-3.8C65.2,22.4,62.6,21,58.4,21z M107.6,12.1h4.5v-1.5h-10.9v1.5h4.6v2.6
	c0,3.4-2.4,7.2-5.3,8.7l1.1,1.5c2.3-1.2,4.2-3.7,5.2-6.7c0.9,2.7,2.8,5.1,5.1,6.2l1.1-1.5c-2.9-1.4-5.2-5-5.2-8.2V12.1z M119.6,16.6
	h-3.3V8.5h-1.8v20.2h1.8V18.2h3.3V16.6z M136.8,14.5c0-1.9,1.5-3.2,3.4-3.2c2,0,3.4,1.4,3.4,3.2c0,1.9-1.4,3.2-3.4,3.2
	C138.3,17.7,136.8,16.4,136.8,14.5z M149.5,12.9V16h-4.3c0.2-0.5,0.3-1,0.3-1.6c0-0.6-0.1-1.1-0.2-1.6H149.5z M149.5,17.5v2.9h1.9
	v-12h-1.9v2.9h-5.2c-0.9-1-2.4-1.7-4.1-1.7c-3,0-5.2,2-5.2,4.8c0,2.8,2.2,4.8,5.2,4.8c1.7,0,3.2-0.7,4.1-1.7H149.5z M144.7,27.2
	c-3,0-4.9-0.9-4.9-2.4c0-1.5,1.8-2.4,4.9-2.4c3.1,0,4.9,0.9,4.9,2.4C149.6,26.3,147.8,27.2,144.7,27.2z M144.7,20.9
	c-4.1,0-6.7,1.4-6.7,3.9s2.6,3.9,6.7,3.9c4.2,0,6.8-1.4,6.8-3.9S148.9,20.9,144.7,20.9z M183.5,26.9h-9.2v-2.6h9.2V26.9z
	 M183.5,22.9h-9.2v-2.6h-1.8v8.1h12.9v-8.1h-1.8V22.9z M174.2,17.2c-2,0-3.4-1.3-3.4-3.2s1.4-3.1,3.4-3.1s3.4,1.3,3.4,3.1
	S176.2,17.2,174.2,17.2z M183.5,8.5v4.8h-4.1c-0.4-2.3-2.4-3.9-5.1-3.9c-3,0-5.2,1.9-5.2,4.7c0,2.8,2.2,4.7,5.2,4.7
	c2.8,0,4.8-1.6,5.2-4h4.1v4.5h1.9V8.5H183.5z M209.5,12.1h4.5v-1.5h-10.9v1.5h4.6v2.6c0,3.4-2.4,7.2-5.3,8.7l1.1,1.5
	c2.3-1.2,4.2-3.7,5.2-6.7c0.9,2.7,2.8,5.1,5.1,6.2l1.1-1.5c-2.9-1.4-5.2-5-5.2-8.2V12.1z M221.6,16.6h-3.3V8.5h-1.8v20.2h1.8V18.2
	h3.3V16.6z M257,24h12.1v4.6h1.8v-6.1h-14V24z M261.6,10.7h5v4.4h-5V10.7z M265.1,19v-2.4h6.4v-1.5h-3v-4.4h3.1V9.2h-14.8v1.5h3v4.4
	h-3v1.5h6.5V19H255v1.5h18.3V19H265.1z M299.6,18c-2.3,0.4-4.3,0.5-8,0.5v-3.1h6.8V9.7h-8.7v1.5h6.9V14h-6.8v6h1.4
	c4,0,6.1-0.1,8.6-0.5L299.6,18z M292.1,23.5h11.7v5.2h1.9V22h-13.5V23.5z M303.7,8.5v3h-3.9V13h3.9v2.7h-3.9v1.5h3.9v3.7h1.9V8.5
	H303.7z M345.3,15h10.3v3.7h-10.3V15z M351.3,24.6v-4.3h6V9.9h-1.8v3.6h-10.3V9.9h-1.8v10.3h6v4.3h-8.2v1.5h18.3v-1.5H351.3z
	 M389.5,12.5c0,2.4,0,5.3-0.8,9.1l1.8,0.2c0.8-4.1,0.8-6.8,0.8-9.3v-2h-14.2V12h12.3V12.5z M384.2,24.3v-7.2h-1.8v7.2h-7.1v1.5h18.3
	v-1.5H384.2z M416.3,10.2h-1.8v3.6c0,3.7-2.3,7.6-5.2,9.1l1.1,1.5c2.3-1.2,4.1-3.8,5-6.8c0.9,2.8,2.8,5.2,5.1,6.4l1.1-1.5
	c-2.9-1.4-5.2-5.1-5.2-8.7V10.2z M424,8.5v6.8h-4.7v1.5h4.7v11.9h1.8V8.5H424z"/>
<g>
	<path class="st1" d="M238.4,64v95.1c0,1.5,0.7,2.2,2.1,2.1l9.1-0.3c3.1-0.2,5.2-0.6,6.4-1.3c1.3-0.7,1.9-2,1.9-3.7v-94
		c0.5-0.8,1.1-1.7,1.6-2.7c0.6-1.1,1.2-2.1,1.6-3c0.5-1.3,0.1-1.9-1.3-1.9h-19.9c-1.5,0-2.2,0.7-2.1,2.1L238.4,64z"/>
	<path class="st1" d="M102.5,100.2c-3,0-5.7-0.1-8.3-0.2c-2.5-0.1-5.1-0.3-7.6-0.5c-0.7-0.1-1.3-0.1-1.6,0.2
		c-0.2,0.2-0.3,0.7-0.2,1.6l1.6,11.6c0.2,1.4,1,1.9,2.4,1.6c3-0.6,6.4-1.3,10.3-1.9c2-0.3,4.2-0.6,6.5-0.7v14.6
		c0,1.4,0.6,2.1,1.9,2.1l9.5-0.3c3.1-0.2,5.2-0.6,6.4-1.3c1.3-0.7,1.9-2,1.9-3.7V61.9c0.5-0.8,1.1-1.7,1.6-2.7
		c0.6-1.1,1.2-2.1,1.7-3c0.6-1.3,0.2-1.9-1.3-1.9h-20.4c-1.5,0-2.2,0.7-2.1,2.1l0.6,8v10.1c-1.1,0-2.2,0.1-3.2,0.1
		c-3,0-5.7-0.1-8.3-0.2c-2.5-0.2-5.1-0.4-7.6-0.6c-0.7-0.1-1.3,0-1.6,0.3c-0.2,0.2-0.3,0.7-0.2,1.6L86.4,87c0.2,1.5,1,2,2.4,1.6
		c3-0.6,6.4-1.3,10.3-1.9c2-0.3,4.2-0.6,6.5-0.7v14.2C104.6,100.2,103.5,100.2,102.5,100.2z"/>
	<path class="st1" d="M442.8,135c-1-2.8-2.1-5.4-3.5-8c-1.3-2.5-2.7-4.7-4.3-6.5c-0.4-0.7-0.8-1.1-1.3-1.1c-0.4-0.1-1,0.1-1.6,0.6
		l-5.3,4.2c-4.4,0.2-9.1,0.4-14.2,0.6c-6.7,0.2-13.8,0.4-21.3,0.5c-7.5,0.1-15.2,0.2-23.1,0.2c-7.7-0.1-15.5-0.2-23.2-0.3
		c-7.6-0.2-14.9-0.4-21.9-0.6c-7-0.3-13.4-0.7-19.2-1.1c-0.8-0.1-1.4,0-1.6,0.3c-0.2,0.3-0.2,0.8,0,1.6l2.7,11.9
		c0.3,1.4,1.2,2,2.7,1.9c5.8-0.3,12.6-0.6,20.4-0.8c7.8-0.2,16.3-0.3,25.3-0.3c3.8,0,7.6-0.1,11.4-0.1v24.4c0,1.4,0.7,2,2.2,1.9
		l9.2-0.2c3.1-0.2,5.2-0.6,6.4-1.3c1.3-0.7,1.9-2,1.9-3.7v-21.3c8.5,0,16.9,0.1,25.3,0.3c9.4,0.1,18.4,0.3,26.9,0.5
		c2.2,0.1,3.8,0.1,4.8,0c1.1-0.1,1.6-0.4,1.7-1C443.2,137.1,443.1,136.2,442.8,135z"/>
	<path class="st1" d="M323.7,71.6V112c0,1.4,0.7,2,2.2,1.9l8.1-0.3c3.1-0.2,5.2-0.7,6.4-1.4c0.8-0.5,1.3-1.1,1.6-1.9h58.8v0.8
		c0,1.5,0.7,2.1,2.1,1.7l8.6-0.5c3.1-0.3,5.2-0.8,6.4-1.6c1.3-0.8,1.9-2.1,1.9-3.8V72.1c0.7-0.5,1.4-1.1,2.1-1.7
		c0.7-0.6,1.4-1.3,1.9-1.9c1.1-1.1,1-2-0.2-2.9c-2.2-1.5-4.7-2.9-7.3-4.1c-2.5-1.4-5-2.5-7.3-3.5c-1.2-0.6-2.3-0.5-3.5,0.5l-3.5,3
		h-59.4c-0.2-0.9-0.9-1.4-2-1.4l-16.4-1.9c-1.5-0.1-2.1,0.5-1.9,1.9L323.7,71.6z M342.9,97.8V74h57.9v23.9H342.9z"/>
	<path class="st1" d="M62.4,121.7c5.5-2.8,9.9-6.5,13-11.3c3.3-4.9,4.9-10.5,4.9-17s-1.6-12.1-4.9-16.9c-3.2-4.9-7.5-8.6-13-11.3
		c-5.5-2.6-11.7-4-18.4-4c-6.9,0-13.1,1.3-18.6,4c-5.5,2.7-9.9,6.4-13,11.3c-3.1,4.8-4.6,10.4-4.6,16.9s1.5,12.1,4.6,17
		c3.2,4.8,7.5,8.5,13,11.3c5.5,2.7,11.7,4,18.6,4C50.8,125.7,56.9,124.3,62.4,121.7z M26.8,93.4c0-6,1.6-10.7,4.8-14
		c3.3-3.3,7.5-4.9,12.6-4.9c3.2,0,6,0.7,8.6,2.2c2.6,1.5,4.7,3.7,6.2,6.5c1.6,2.8,2.4,6.1,2.4,10.2s-0.8,7.5-2.4,10.3
		c-1.5,2.9-3.6,5-6.2,6.5c-2.5,1.5-5.4,2.2-8.6,2.2c-5.1,0-9.3-1.6-12.6-4.9C28.4,104.2,26.8,99.4,26.8,93.4z"/>
	<path class="st1" d="M179.1,137.4c4.6-0.1,9.3-0.3,14.3-0.5c5.1-0.2,10.2-0.5,15.4-0.8c5.2-0.4,10.1-0.8,14.6-1.3
		c2.2-0.3,3.8-0.6,4.8-0.8c1.1-0.3,1.6-0.8,1.6-1.4c0.1-0.6-0.1-1.5-0.5-2.7c-1.1-2.3-2.3-4.6-3.8-6.7c-1.4-2.2-2.8-4.1-4.3-5.6
		c-1.1-0.8-2.2-0.9-3.5-0.2l-5.5,3.5c-1.6,0.4-3.4,0.7-5.2,1.1c-3.3,0.5-6.7,1.1-10.3,1.6c-3.6,0.4-7.2,0.8-10.8,1.1
		c-3.5,0.2-6.9,0.4-10.3,0.5c-2.2,0.1-4.4,0.1-6.4,0V106h28.5c0.2,1.2,0.9,1.7,2.2,1.6c1.4-0.1,2.9-0.3,4.6-0.5
		c1.7-0.2,3.4-0.4,5.1-0.6c1.7-0.3,3.1-0.6,4.3-1c1.4-0.4,2.1-1.4,2.1-2.9l1.1-27l2.2-1.6c0.6-0.5,1-1,1-1.3
		c0.1-0.3-0.1-0.8-0.6-1.4c-1.9-1.8-4-3.6-6.2-5.2c-2.1-1.8-4.1-3.2-6-4.3c-1.3-0.6-2.4-0.5-3.5,0.3l-3.6,2.8l-52.4-0.1
		c-0.7,0-1.2,0.2-1.4,0.5c-0.2,0.3-0.2,0.8,0,1.6l3,11c0.2,0.7,0.5,1.3,1,1.6c0.4,0.2,1,0.3,1.7,0.3c9.1-0.7,18-1.3,26.6-1.6
		c6.2-0.3,12.5-0.6,19-0.8l-0.1,18.2h-29.3c-0.6-0.7-1.4-1-2.4-1.1l-16.2-0.5c-0.8-0.1-1.4,0-1.6,0.3c-0.2,0.2-0.2,0.7,0,1.6
		l2.2,8.4v35c0,1.4,0.7,2,2.2,1.9l9.2-0.6c2.3-0.1,4-0.3,4.9-0.5c1.1-0.3,1.7-0.8,1.9-1.4c0.2-0.3,0.3-0.7,0.4-1.2
		C172.1,137.4,175.4,137.4,179.1,137.4z"/>
	<path class="st1" d="M264.3,182.4c-1.7-2.3-3.6-4.4-5.6-6.2c-1-1-2-1.1-3.2-0.3l-5.7,4c-2.7,0.2-5.6,0.3-8.7,0.5
		c-4.7,0.2-9.5,0.4-14.6,0.5c-5,0.1-9.9,0.2-14.6,0.2c-4.7,0.1-9.1,0.1-13.2,0c-2.3-0.1-4.3-0.1-6.2-0.2v-24c0.5-0.8,1-1.7,1.4-2.5
		c0.4-0.8,0.8-1.6,1.1-2.4c0.6-1.3,0.2-1.9-1.3-1.9h-20.8c-1.6,0-2.2,0.7-1.9,2.1l1.3,9.5v33.9c0,1.4,0.7,2,2.1,1.9l9.9-0.5
		c3.1-0.2,5.2-0.7,6.4-1.4c0.8-0.5,1.3-1.1,1.6-1.9c1.8,0.1,3.9,0.2,6.3,0.3c4.2,0.2,9,0.4,14.3,0.5s10.9,0.2,16.7,0.2
		c5.9,0,11.8-0.1,17.5-0.2c5.8-0.1,11.2-0.3,16.2-0.5c3.5-0.3,5.5-0.7,6-1.3c0.5-0.5,0.4-1.6-0.5-3.3
		C267.6,187,266.1,184.8,264.3,182.4z"/>
	<path class="st1" d="M130.5,183.9c-1.5-2.1-3.1-3.9-4.9-5.4c-1.1-1-2.2-1-3.3-0.2l-4.5,3.1c-2.3,0.3-4.9,0.6-7.9,0.9
		c-5,0.4-10.4,0.8-16.4,1.1c-5.9,0.3-11.8,0.5-17.6,0.6s-11.1,0.1-15.7,0c-1.5,0-2.8,0-4.1,0l-0.5-14.9h48.9
		c0.1,1.3,0.7,1.9,2.1,1.9c1.4-0.1,3-0.2,4.8-0.3c1.8-0.2,3.6-0.4,5.4-0.6c1.9-0.3,3.5-0.6,4.8-1c1.5-0.3,2.2-1.2,2.2-2.5l1-21.9
		l2.2-2.2c0.6-0.5,0.9-1,0.8-1.4c0-0.4-0.3-0.9-0.8-1.4c-2-1.3-4.1-2.5-6.4-3.7c-2.2-1.3-4.4-2.3-6.5-3c-1.3-0.5-2.5-0.4-3.7,0.5
		l-2.5,1.9H35.2c-1.5,0-2,0.7-1.6,2.1l2.5,9.2c0.4,1.4,1.3,2,2.7,1.9c8.2-0.6,16.3-1.1,24.3-1.4c8.1-0.4,16.2-0.7,24.3-1
		c5.5-0.1,11.2-0.2,16.9-0.3v13.6H56.5c-0.4-0.3-0.9-0.4-1.5-0.5l-18.8-1.3c-1.5-0.1-2,0.5-1.6,1.9l1.4,6.5v29.9
		c0,1.5,0.7,2.2,2.1,2.1l9.9-0.8c3.1-0.2,5.2-0.7,6.4-1.6c0.5-0.3,0.9-0.7,1.2-1.1c1.4,0.1,2.9,0.1,4.5,0.1
		c4.6,0.1,9.8,0.2,15.6,0.3s11.9,0.2,18.3,0.2c6.4,0,12.6-0.1,18.6-0.2s11.4-0.2,16.2-0.3c2.3-0.2,3.9-0.4,4.8-0.6
		c1-0.2,1.4-0.6,1.4-1.3c0.1-0.5-0.1-1.4-0.6-2.5C133.3,188.1,132.1,186,130.5,183.9z"/>
	<path class="st1" d="M423.7,182.4c-1.8-2.2-3.7-4.3-5.7-6.2c-1-1-2-1-3.2-0.2l-5,3.8c-3,0.2-6.2,0.4-9.7,0.5
		c-5,0.2-10.2,0.4-15.6,0.5c-5.3,0.1-10.6,0.2-15.9,0.2c-5.2,0.1-10,0.1-14.3,0c-3.1-0.1-5.8-0.2-8.1-0.2v-23.6
		c0.5-0.7,1-1.5,1.4-2.4s0.8-1.6,1.1-2.4c0.6-1.4,0.2-2.1-1.3-2.1h-20.8c-1.6,0-2.2,0.7-1.9,2.2l1.3,9.4v33.5c0,1.4,0.7,2,2.1,1.9
		l9.9-0.5c3.1-0.2,5.2-0.7,6.4-1.4c0.8-0.5,1.4-1.1,1.7-2c2.2,0.2,4.9,0.3,8.2,0.4c4.5,0.2,9.5,0.4,15.3,0.5s11.7,0.2,18,0.2
		c6.3,0,12.4-0.1,18.4-0.3c6-0.1,11.7-0.3,16.9-0.5c3.4-0.2,5.4-0.6,5.9-1.1c0.6-0.5,0.5-1.6-0.3-3.3
		C427,187,425.5,184.8,423.7,182.4z"/>
</g>
</svg>
